<svg width="23" height="25" viewBox="0 0 23 25" fill="none" xmlns="http://www.w3.org/2000/svg">
<path d="M22.4374 0C11.8489 0 3.13948 8.14585 2.21658 18.4979C3.97596 16.0167 6.13118 13.6292 8.82181 10.8844C9.02181 10.6781 9.35306 10.674 9.55828 10.8771C9.76351 11.0781 9.76663 11.4083 9.56556 11.6136C9.16033 12.0261 8.74891 12.4542 8.33533 12.8875C8.09886 13.1344 7.86761 13.3803 7.64056 13.6219C7.59891 13.6667 7.55721 13.7115 7.51556 13.7573C4.19056 17.3177 1.81346 20.4166 0.0873827 24.2656C-0.0303419 24.5281 0.0873827 24.8365 0.348857 24.9542C0.418633 24.9854 0.490508 25 0.562383 25C0.761357 25 0.951982 24.8854 1.03841 24.6927C1.65301 23.3229 2.36653 22.0521 3.16863 20.8156C10.4436 20.6292 17.0655 16.5823 20.5364 10.1427C20.6228 9.98125 20.6186 9.78648 20.5249 9.62813C20.4301 9.47188 20.2603 9.375 20.077 9.375H18.1478L21.6072 7.3979C21.7166 7.3354 21.801 7.23438 21.8416 7.11562C22.5832 4.95937 22.9582 2.74062 22.9582 0.52085C22.9582 0.23335 22.7249 0 22.4374 0Z" fill="#833F32"/>
</svg>
